<?xml version="1.0" standalone="no"?>
<!DOCTYPE svg PUBLIC "-//W3C//DTD SVG 20010904//EN"
 "http://www.w3.org/TR/2001/REC-SVG-20010904/DTD/svg10.dtd">
<svg version="1.0" xmlns="http://www.w3.org/2000/svg"
 width="300.000000pt" height="300.000000pt" viewBox="0 0 300.000000 300.000000"
 preserveAspectRatio="xMidYMid meet">
<metadata>
Created by potrace 1.11, written by Peter Selinger 2001-2013
</metadata>
<g transform="translate(0.000000,300.000000) scale(0.100000,-0.100000)"
fill="#000000" stroke="none">
<path d="M1810 2745 c-30 -7 -68 -14 -85 -14 -16 -1 -55 -10 -85 -21 -30 -11
-70 -19 -88 -20 -18 0 -50 -9 -72 -20 -22 -11 -59 -20 -82 -20 -49 0 -103 -28
-113 -59 -3 -11 -29 -33 -56 -47 -43 -24 -141 -123 -167 -169 -4 -8 -32 -19
-62 -25 -67 -13 -140 -59 -174 -110 -20 -30 -34 -40 -63 -45 -40 -7 -128 -55
-205 -113 -35 -26 -53 -50 -69 -89 -14 -36 -27 -53 -38 -52 -38 3 -51 -3 -66
-31 -32 -62 -5 -119 70 -144 25 -9 41 -21 43 -33 4 -25 95 -123 114 -123 8 0
40 36 70 80 l56 80 11 -43 c13 -55 70 -142 92 -142 18 0 93 85 111 127 18 39
28 24 21 -32 -6 -49 10 -132 30 -157 17 -23 58 -14 129 27 39 22 74 38 79 35
4 -3 -1 -22 -13 -43 -25 -45 -58 -138 -58 -165 0 -18 5 -19 68 -13 37 4 84 12
105 18 62 19 64 -4 8 -72 -54 -64 -79 -116 -64 -131 5 -5 34 -12 64 -15 30 -3
69 -10 87 -16 31 -9 32 -11 32 -66 0 -58 -27 -179 -49 -220 -12 -23 -13 -22
-52 25 -22 26 -63 83 -91 125 -47 71 -57 81 -127 117 -42 21 -134 59 -206 84
-316 111 -328 117 -445 211 -89 72 -90 73 -137 154 -59 105 -142 148 -202 106
-23 -17 -23 -19 -19 -153 6 -168 18 -199 118 -305 96 -101 138 -120 307 -140
138 -17 283 -58 396 -111 74 -36 138 -106 188 -210 52 -109 57 -131 29 -140
-26 -8 -38 2 -65 58 -23 48 -48 56 -83 29 -18 -14 -26 -33 -30 -72 -7 -51 -9
-54 -41 -62 -18 -5 -35 -7 -37 -5 -3 3 -12 31 -21 63 -22 80 -28 87 -61 66
-15 -9 -47 -33 -71 -54 -46 -40 -57 -44 -80 -29 -13 8 -11 22 13 93 22 67 25
88 17 111 -6 15 -13 27 -16 27 -9 0 -120 -74 -163 -108 -46 -38 -58 -38 -43 0
5 13 11 62 12 109 l4 84 -28 3 c-16 2 -56 -10 -94 -27 -40 -19 -70 -28 -77
-23 -42 33 -101 6 -112 -53 -7 -41 12 -96 75 -215 65 -125 78 -140 140 -167
31 -14 101 -47 156 -74 155 -75 271 -109 374 -109 26 0 70 -7 97 -15 63 -19
161 -19 259 0 87 16 109 28 215 109 60 47 79 56 100 51 108 -27 185 -23 341
15 69 17 82 17 135 5 33 -8 107 -14 165 -15 98 0 109 2 145 26 102 68 175 165
209 278 14 45 25 91 25 103 0 13 25 43 69 82 58 51 77 77 111 148 58 120 71
163 81 283 28 316 18 532 -34 770 -8 36 -18 72 -21 81 -4 9 0 36 8 60 21 58
21 109 1 109 -21 0 -19 39 4 74 11 17 18 33 15 38 -3 4 -34 8 -70 8 -62 0 -64
1 -64 25 0 33 -21 40 -138 49 -110 7 -128 14 -284 113 -37 24 -99 52 -140 63
-93 26 -263 33 -338 15z m-316 -149 c40 -17 103 -81 112 -113 7 -26 32 -31 40
-9 7 19 -11 53 -50 95 l-31 33 49 -5 c64 -6 93 -30 135 -110 l35 -67 45 6 c80
10 285 -53 356 -109 47 -37 153 -258 167 -347 13 -83 5 -179 -25 -300 -35
-140 -57 -173 -166 -253 -52 -37 -76 -48 -134 -58 -40 -6 -88 -17 -108 -24
-36 -13 -36 -13 -54 23 -26 55 -85 132 -101 132 -24 0 -16 -25 31 -94 50 -75
52 -83 60 -256 5 -114 3 -133 -20 -210 -37 -127 -64 -186 -132 -290 -78 -120
-134 -174 -313 -303 -66 -47 -283 -75 -357 -46 -15 6 -69 15 -119 20 -131 11
-201 32 -353 105 -73 35 -139 64 -145 64 -6 0 -28 14 -49 31 -27 22 -54 65
-97 153 -62 127 -70 159 -46 192 14 18 19 15 98 -67 94 -97 128 -121 248 -172
183 -78 270 -93 417 -73 189 27 236 54 389 230 46 52 55 70 78 156 30 112 32
163 10 263 -20 92 -27 112 -80 222 -53 108 -104 165 -240 262 -108 78 -139 92
-258 118 -72 16 -94 16 -231 5 -150 -13 -153 -13 -199 9 -39 19 -46 27 -46 51
0 33 12 43 53 44 24 1 32 9 60 66 28 57 41 71 110 118 65 45 91 56 158 70 l80
15 64 -33 c48 -25 68 -31 76 -23 6 6 8 16 4 22 -9 15 -120 71 -140 71 -21 0
-19 13 8 37 66 61 147 84 147 41 0 -41 21 -98 35 -98 21 0 23 10 15 73 -8 53
-6 62 16 95 l25 37 -6 -51 c-5 -36 -2 -69 10 -110 20 -69 24 -75 81 -114 44
-29 183 -66 211 -56 7 3 13 1 13 -5 0 -5 -17 -17 -37 -26 -31 -13 -60 -14
-152 -9 -95 6 -117 4 -138 -9 -28 -19 -53 -71 -53 -113 0 -77 89 -195 115
-153 3 5 -5 21 -18 35 -38 41 -60 100 -53 139 11 58 23 62 178 62 l140 0 63
67 c59 62 62 64 48 30 -18 -43 -19 -141 -3 -172 6 -12 18 -43 26 -69 18 -63
84 -137 132 -151 20 -5 82 -10 137 -10 115 0 124 4 179 79 37 51 59 132 73
269 6 53 6 53 -44 101 -113 109 -266 149 -376 98 l-55 -25 14 40 c19 56 18
142 -3 174 -9 14 -50 50 -90 81 -60 44 -86 56 -136 65 l-61 11 23 18 c28 23
106 25 155 5z m-92 -76 c17 0 143 -90 166 -118 17 -22 14 -120 -6 -168 -9 -22
-36 -63 -59 -89 l-42 -49 -91 11 c-171 22 -231 90 -216 244 9 83 36 131 86
153 49 21 70 25 110 20 19 -2 43 -4 52 -4z m448 -327 c62 -23 147 -78 166
-108 17 -26 16 -49 -5 -178 -13 -78 -27 -110 -69 -155 l-30 -32 -109 0 c-154
0 -180 18 -230 162 -34 95 -33 153 2 223 23 45 37 59 79 80 60 30 130 33 196
8z m-978 -436 c26 -7 49 -15 52 -18 6 -6 -65 -101 -80 -106 -13 -4 -64 87 -64
116 0 25 21 27 92 8z m-192 -3 c0 -8 -59 -92 -68 -98 -11 -6 -85 81 -78 92 5
9 146 15 146 6z m434 -102 l57 -40 -66 -37 c-37 -21 -70 -34 -74 -29 -17 20
-31 95 -25 134 8 46 -2 49 108 -28z m205 -193 l19 -37 -61 -11 c-34 -7 -70
-15 -81 -18 -16 -4 -18 -1 -12 23 4 16 18 53 32 83 l24 54 30 -28 c16 -16 39
-45 49 -66z m96 -232 l7 -43 -66 9 c-62 10 -64 11 -54 31 6 12 27 40 46 64
l35 43 13 -30 c7 -17 16 -50 19 -74z m1026 -197 c49 -25 67 -42 99 -92 22 -34
40 -69 40 -78 0 -30 -49 -190 -67 -218 -31 -49 -65 -86 -121 -134 l-56 -48
-111 1 c-137 1 -172 12 -200 66 -11 22 -26 48 -34 57 -9 10 -10 16 -2 16 6 0
11 11 11 24 0 21 6 25 43 31 23 4 55 18 71 32 66 56 105 -5 42 -66 l-35 -34
-21 26 c-25 31 -50 35 -50 9 0 -24 51 -72 77 -72 11 0 38 19 62 45 33 35 41
52 41 81 0 44 -23 74 -58 74 l-26 0 29 30 c46 48 133 36 136 -18 4 -69 -1 -93
-20 -118 -11 -14 -18 -30 -15 -35 21 -35 84 43 84 104 0 75 -52 147 -106 147
-21 0 -24 5 -24 36 l0 36 63 -7 c69 -7 103 -26 131 -75 19 -31 26 -105 15
-155 -3 -12 2 -20 13 -23 43 -9 48 138 8 203 -36 58 -77 82 -158 90 l-73 7 22
24 c12 13 27 24 33 24 6 0 22 9 36 20 34 26 51 25 121 -10z m-1996 -200 c0
-38 -4 -73 -10 -79 -10 -10 -42 14 -94 72 l-24 27 54 25 c30 13 59 25 64 25 6
0 10 -30 10 -70z m818 -125 c-33 -28 -39 -31 -45 -16 -9 21 -9 80 -1 110 6 24
7 24 45 -18 l38 -44 -37 -32z m-626 4 l-23 -66 -58 22 -58 22 43 34 c67 53
114 80 117 66 1 -7 -8 -42 -21 -78z m430 -63 c23 -49 19 -56 -37 -56 -27 0
-28 1 -23 43 5 37 16 56 33 57 3 0 15 -20 27 -44z m-222 -37 l7 -37 -48 9
c-26 5 -50 11 -52 14 -3 3 12 20 34 39 42 37 48 35 59 -25z"/>
<path d="M1791 2346 c-8 -9 -12 -19 -9 -21 3 -3 36 -7 74 -9 109 -6 189 -50
231 -127 16 -27 38 -69 51 -92 21 -37 23 -53 20 -136 -2 -69 0 -95 9 -98 20
-7 33 42 33 121 0 81 -12 126 -45 171 -12 17 -31 48 -43 70 -37 72 -132 126
-237 133 -57 3 -73 1 -84 -12z"/>
<path d="M1317 2369 c-26 -30 -18 -54 17 -52 42 3 52 17 36 48 -16 30 -30 32
-53 4z"/>
<path d="M1737 2033 c-8 -12 -3 -38 9 -54 6 -8 14 -22 17 -31 9 -26 26 -22 37
8 12 31 3 74 -15 74 -7 0 -20 3 -28 6 -8 3 -17 1 -20 -3z"/>
</g>
</svg>
